<?xml version="1.0" standalone="no"?>
<!DOCTYPE svg PUBLIC "-//W3C//DTD SVG 20010904//EN"
 "http://www.w3.org/TR/2001/REC-SVG-20010904/DTD/svg10.dtd">
<svg version="1.0" xmlns="http://www.w3.org/2000/svg"
 width="1496.000000pt" height="1496.000000pt" viewBox="0 0 1496.000000 1496.000000"
 preserveAspectRatio="xMidYMid meet">
<metadata>
Created by potrace 1.14, written by Peter Selinger 2001-2017
</metadata>
<g transform="translate(0.000000,1496.000000) scale(0.100000,-0.100000)"
fill="#000000" stroke="none">
<path d="M5780 14285 c0 -9 48 -89 155 -260 48 -77 110 -177 139 -223 153
-248 497 -582 1091 -1062 65 -52 174 -142 244 -200 69 -58 198 -165 287 -237
88 -72 227 -189 310 -259 82 -71 169 -144 194 -163 25 -19 72 -60 105 -91 33
-31 100 -87 149 -125 49 -39 119 -95 156 -125 37 -30 89 -70 116 -89 l49 -34
-30 -13 -30 -13 27 -1 c15 0 29 -4 32 -8 3 -5 -126 -15 -287 -21 -161 -7 -357
-16 -437 -21 -80 -5 -381 -16 -670 -25 -289 -8 -604 -22 -700 -30 -183 -16
-379 -19 -345 -6 14 6 7 9 -29 14 -27 4 -63 7 -80 6 -27 -1 -24 -3 24 -19 40
-13 48 -19 30 -20 -22 -1 -20 -4 16 -20 40 -18 671 -230 969 -325 125 -40 169
-59 213 -91 2 -1 -34 -38 -80 -82 -91 -87 -155 -138 -418 -330 -217 -159 -412
-295 -770 -536 -102 -69 -277 -187 -390 -263 -113 -76 -252 -167 -310 -202
-104 -63 -150 -97 -150 -113 0 -4 75 -8 168 -8 237 0 1080 -35 1090 -45 16
-16 -33 -131 -185 -434 -92 -184 -219 -431 -282 -550 -176 -336 -522 -964
-564 -1026 -11 -16 -16 -27 -12 -23 4 4 14 3 20 -2 8 -7 24 -2 51 16 21 15 73
41 114 59 41 18 188 89 325 158 138 68 291 144 340 167 50 23 111 53 138 66
37 18 47 20 47 9 0 -8 5 -15 10 -15 14 0 12 -49 -5 -160 -9 -52 -25 -162 -36
-244 -11 -82 -47 -280 -80 -440 -33 -160 -75 -376 -94 -481 -42 -229 -51 -265
-70 -265 -8 0 -15 7 -15 15 0 9 -6 12 -16 8 -10 -4 -32 10 -62 39 -26 25 -94
82 -152 128 -248 198 -311 249 -410 335 -58 50 -154 131 -215 180 -60 49 -168
139 -240 200 -209 179 -512 416 -1000 785 -148 112 -328 250 -400 307 -71 56
-256 200 -410 318 -234 181 -547 432 -670 539 -27 24 -31 24 -37 9 -3 -10 -40
-164 -82 -343 -41 -179 -95 -408 -120 -510 -72 -300 -174 -756 -231 -1040 -30
-146 -70 -341 -89 -435 -34 -162 -175 -878 -306 -1555 -34 -173 -90 -461 -125
-640 -85 -432 -80 -393 -58 -411 10 -9 79 -48 153 -86 74 -39 203 -107 285
-150 83 -44 195 -104 250 -133 93 -49 289 -154 415 -223 106 -57 176 -95 255
-137 234 -125 358 -191 430 -230 28 -15 100 -53 160 -85 180 -94 325 -172 445
-240 41 -23 120 -66 175 -95 55 -29 114 -61 130 -70 32 -18 189 -103 400 -217
234 -127 250 -136 260 -143 6 -4 114 -64 240 -132 369 -200 868 -473 1005
-550 25 -14 72 -40 105 -58 33 -18 85 -47 115 -65 30 -18 138 -79 240 -135
158 -88 252 -142 450 -260 19 -11 109 -65 200 -120 205 -125 308 -177 364
-185 41 -7 45 -5 92 42 27 26 90 107 138 178 128 187 161 230 581 755 209 261
446 563 527 670 80 107 164 212 186 233 l39 39 49 -58 c27 -32 85 -98 129
-147 44 -50 132 -149 195 -221 63 -72 149 -167 190 -211 78 -84 167 -185 216
-245 15 -19 65 -75 109 -125 45 -49 113 -128 152 -175 39 -47 92 -105 117
-130 25 -24 46 -51 46 -59 0 -11 4 -10 20 4 19 17 21 17 38 -3 l19 -22 12 43
c7 23 37 96 68 161 30 66 119 291 198 500 79 210 176 464 215 566 272 711 601
1652 769 2195 104 339 121 401 121 452 0 49 0 48 -291 320 -194 180 -347 315
-389 340 -14 9 -62 61 -108 117 -45 55 -145 166 -222 246 -77 80 -140 148
-140 151 0 4 -57 66 -127 139 -71 73 -141 149 -158 169 -16 20 -57 65 -90 101
-34 36 -110 121 -170 190 -140 161 -210 235 -260 273 -22 16 -32 27 -22 24 17
-6 16 -4 -2 19 -25 32 -119 139 -226 257 -44 48 -110 125 -148 170 -37 45 -72
84 -77 85 -6 2 -10 8 -10 13 0 11 -88 104 -101 105 -5 1 -10 2 -11 4 -2 1 -11
3 -22 5 -21 4 -58 40 -49 49 3 3 -11 22 -32 43 -20 21 -48 55 -62 76 -14 20
-30 37 -34 37 -5 0 -9 7 -9 15 0 9 -22 39 -50 67 -27 28 -50 55 -50 59 0 4
-20 29 -45 55 -25 25 -45 53 -45 60 0 8 -4 14 -10 14 -5 0 -10 4 -10 9 0 11
-65 104 -95 136 -11 11 -28 33 -38 49 -23 34 -52 69 -93 110 -18 18 -40 57
-52 95 l-21 63 24 42 c34 58 170 138 345 202 52 20 111 42 130 50 28 12 99 15
342 17 l307 2 21 36 c37 66 53 65 199 -13 125 -67 561 -278 575 -278 2 0 50
-22 107 -49 218 -102 357 -159 539 -221 171 -58 237 -95 376 -208 151 -123
164 -135 164 -145 0 -5 20 -34 44 -65 24 -32 50 -75 57 -96 18 -51 121 -160
127 -133 2 10 14 22 26 27 34 13 51 79 52 205 2 170 1 163 34 180 39 20 76 19
173 -6 103 -26 235 -88 356 -167 52 -34 100 -62 107 -62 7 0 19 -3 28 -6 32
-12 15 20 -53 100 -161 190 -202 258 -203 333 0 101 64 161 236 219 102 35
185 33 264 -7 68 -34 187 -139 235 -208 17 -25 32 -40 35 -33 2 7 -10 56 -26
110 -17 53 -33 114 -37 135 -6 40 -15 46 -35 22 -16 -19 -52 -13 -126 20 -69
32 -142 50 -210 54 -13 1 -25 25 -29 58 -6 46 -29 99 -51 119 -27 26 -187 124
-202 124 -5 0 -21 9 -36 21 -15 12 -93 54 -174 95 -146 73 -236 121 -322 172
-62 38 -78 46 -196 107 -56 29 -115 62 -130 74 -15 11 -30 21 -35 21 -12 0
-131 81 -214 145 -38 30 -79 58 -90 61 -11 4 -22 9 -25 13 -11 13 -110 60
-104 48 4 -7 -2 -4 -13 6 -11 9 -24 17 -29 17 -15 0 -79 60 -76 71 1 5 -4 9
-12 9 -7 0 -19 6 -25 14 -9 11 -4 17 28 29 22 9 57 14 78 12 21 -2 38 -4 38
-5 0 -1 20 -3 45 -4 25 -2 65 -10 89 -20 55 -20 100 -21 107 -1 8 21 -19 85
-61 147 -19 28 -42 75 -51 105 -9 30 -27 78 -40 106 -14 31 -28 90 -35 147 -6
52 -12 96 -13 97 -1 1 -42 10 -91 20 -62 12 -97 25 -112 40 -21 21 -21 22 -2
57 10 19 16 41 14 48 -3 7 -52 47 -108 89 -151 112 -309 252 -512 451 -99 98
-182 178 -185 178 -16 0 -134 -108 -161 -148 -41 -60 -124 -139 -163 -156 -78
-34 -167 -48 -208 -34 -28 10 -38 28 -17 28 20 0 -12 30 -48 45 -18 8 -50 16
-71 18 -38 4 -61 11 -99 29 -11 6 -26 7 -32 4 -6 -4 -11 -3 -11 2 0 5 -14 9
-31 9 -18 0 -37 6 -43 15 -6 8 -21 20 -33 26 -15 8 -20 20 -18 37 1 18 -2 25
-10 21 -8 -3 -16 2 -19 10 -3 8 -12 14 -20 14 -7 0 -16 7 -20 15 -3 8 -15 15
-27 15 -12 0 -27 7 -33 16 -10 13 -28 20 -58 23 -5 1 -7 7 -5 14 1 6 -3 11
-10 10 -6 -1 -26 11 -43 27 -18 17 -41 30 -51 30 -10 0 -19 5 -19 11 0 5 -4 8
-9 4 -5 -3 -12 4 -16 15 -3 11 -12 20 -19 20 -7 0 -29 14 -47 31 -36 32 -143
97 -146 89 -1 -3 -12 5 -25 17 -51 47 -135 104 -168 113 -85 25 -303 163 -442
279 -36 31 -113 88 -170 126 -57 38 -105 72 -108 76 -3 3 -15 9 -27 13 -13 4
-46 27 -75 52 -28 24 -56 44 -61 44 -8 0 -185 118 -197 131 -3 3 -27 21 -55
39 -49 33 -196 142 -245 181 -14 11 -60 45 -103 77 -63 46 -173 130 -242 184
-5 4 -37 29 -70 55 -33 26 -64 52 -70 59 -5 6 -46 38 -91 72 -44 33 -98 77
-120 98 -21 22 -43 39 -47 39 -4 0 -11 5 -15 11 -4 6 -15 13 -24 17 -10 3 -18
14 -18 23 0 10 -3 15 -6 11 -6 -6 -54 37 -54 48 0 3 15 -5 33 -19 19 -15 40
-26 48 -26 11 0 11 -2 1 -8 -8 -6 -1 -12 23 -19 19 -6 33 -7 29 -2 -3 5 0 9 5
9 6 0 11 -10 11 -22 0 -12 3 -18 6 -15 11 10 45 -13 38 -25 -4 -6 -3 -8 4 -4
6 3 17 -1 25 -9 9 -8 22 -15 29 -15 7 0 28 -16 45 -35 18 -19 37 -35 43 -35 5
0 10 -4 10 -10 0 -5 11 -10 24 -10 15 0 36 -13 55 -35 17 -20 31 -33 31 -29 0
4 12 -5 26 -19 14 -14 45 -36 69 -47 24 -12 45 -24 47 -28 2 -4 23 -18 47 -30
52 -28 81 -16 35 14 -16 11 -38 27 -48 36 -11 10 -23 18 -26 18 -4 0 -18 9
-31 21 -13 11 -66 51 -118 87 -52 37 -110 79 -130 94 -20 15 -43 31 -51 35 -8
3 -22 14 -30 23 -8 9 -31 27 -50 40 -34 23 -130 99 -140 111 -3 3 -61 54 -130
114 -131 114 -365 344 -513 504 -48 51 -87 90 -87 86z m3520 -2795 c0 -5 -2
-10 -4 -10 -3 0 -8 5 -11 10 -3 6 -1 10 4 10 6 0 11 -4 11 -10z m54 -29 c3 -5
0 -11 -7 -14 -8 -3 -14 1 -14 9 0 16 13 19 21 5z m2735 -3240 c23 -23 28 -127
8 -155 -11 -15 -17 -16 -39 -5 -15 6 -32 26 -38 43 -25 67 -30 76 -40 76 -5 0
-10 9 -10 19 0 14 11 22 38 29 54 14 60 14 81 -7z m-129 -82 c0 -6 -4 -7 -10
-4 -5 3 -10 11 -10 16 0 6 5 7 10 4 6 -3 10 -11 10 -16z m-3316 -1141 c7 -29
8 -63 0 -55 -3 3 -9 22 -14 41 -9 39 4 51 14 14z m61 -249 c4 -38 3 -48 -4
-33 -14 31 -25 123 -12 103 5 -8 12 -40 16 -70z m1689 -42 c-9 -5 -16 -7 -17
-5 -2 1 -8 18 -14 36 l-11 32 29 -27 c24 -23 26 -29 13 -36z m-1650 -129 c11
-44 5 -65 -9 -28 -17 43 -17 50 -6 50 5 0 11 -10 15 -22z m51 -188 c8 -39 15
-83 15 -98 -1 -26 -1 -26 -16 8 -21 47 -44 158 -37 177 9 23 20 -2 38 -87z
m52 -242 c-3 -8 -6 -5 -6 6 -1 11 2 17 5 13 3 -3 4 -12 1 -19z m16 -48 c3 -11
3 -20 1 -20 -2 0 -8 9 -14 20 -6 11 -7 20 -2 20 6 0 12 -9 15 -20z m42 -160
c3 -5 1 -10 -4 -10 -6 0 -11 5 -11 10 0 6 2 10 4 10 3 0 8 -4 11 -10z m17 -82
c15 -59 46 -199 52 -243 2 -11 7 -38 11 -60 5 -29 4 -37 -4 -30 -6 6 -15 40
-20 75 -5 36 -19 94 -31 130 -12 35 -20 77 -18 92 3 15 1 29 -4 30 -9 4 -18
68 -9 68 3 0 14 -28 23 -62z m2395 -161 c3 -20 2 -21 -13 -5 -9 9 -13 21 -9
28 4 6 10 9 13 5 3 -3 7 -16 9 -28z m-2787 -43 c0 -8 -4 -12 -10 -9 -5 3 -10
13 -10 21 0 8 5 12 10 9 6 -3 10 -13 10 -21z m2770 16 c0 -7 6 -7 19 0 25 13
32 13 29 -2 -3 -12 2 -13 52 -17 20 -1 22 -3 10 -11 -9 -6 -10 -10 -3 -10 14
0 83 -45 86 -56 1 -5 19 -24 40 -43 21 -20 39 -43 40 -51 4 -24 17 -41 28 -35
5 3 6 -1 3 -9 -4 -11 0 -16 10 -16 9 0 16 -6 16 -12 0 -9 4 -8 11 2 8 12 9 10
4 -7 -6 -21 -3 -23 32 -24 27 -1 31 -3 13 -6 -13 -3 -29 -12 -36 -21 -7 -9
-19 -13 -33 -9 -11 3 -19 1 -15 -4 8 -13 41 -11 50 3 5 7 11 5 21 -7 7 -11 13
-14 13 -9 0 6 -5 15 -11 21 -9 9 -7 10 10 6 42 -11 15 -39 -36 -38 -19 0 -35
-5 -38 -13 -3 -9 0 -12 9 -9 8 3 18 -4 24 -17 8 -18 6 -25 -9 -34 -24 -15 -30
-15 -23 1 2 7 -5 22 -17 33 -21 18 -22 18 -16 0 6 -16 4 -17 -18 -12 -24 6
-25 5 -15 -15 9 -15 15 -18 23 -10 14 14 27 14 27 1 0 -5 -7 -10 -16 -10 -9 0
-12 -5 -8 -12 5 -7 3 -8 -6 -3 -10 6 -12 3 -8 -12 4 -16 1 -19 -12 -16 -9 3
-24 -2 -32 -11 -9 -8 -18 -12 -22 -9 -3 4 -6 -1 -6 -9 0 -18 -33 -34 -38 -19
-2 6 -8 9 -12 6 -5 -3 -7 -12 -4 -20 5 -11 -1 -14 -19 -13 -15 1 -24 4 -22 7
3 2 -3 10 -13 17 -16 12 -16 13 0 14 9 0 20 -5 23 -11 5 -7 13 -5 24 5 13 12
20 13 29 4 9 -9 12 -8 12 4 0 25 -32 32 -48 11 -13 -16 -14 -16 -10 10 4 22 3
25 -8 16 -8 -6 -11 -16 -7 -22 3 -5 1 -7 -4 -4 -6 4 -17 0 -24 -9 -10 -12 -10
-17 0 -23 10 -6 9 -10 -3 -14 -9 -4 -16 -12 -16 -19 0 -9 3 -9 10 2 5 8 12 11
16 7 12 -12 -15 -32 -43 -32 -21 0 -27 -5 -30 -30 -5 -33 -19 -46 -42 -38 -11
4 -9 0 4 -10 11 -9 15 -17 8 -17 -7 0 -10 -6 -7 -14 3 -8 -3 -16 -15 -19 -19
-5 -27 -26 -22 -64 1 -6 -9 -10 -24 -9 -14 2 -29 -2 -33 -8 -13 -16 -21 -56
-12 -56 5 0 11 8 13 18 3 12 5 11 6 -6 0 -13 5 -21 10 -17 5 3 12 2 15 -3 2
-4 -4 -13 -14 -20 -16 -9 -18 -9 -14 2 4 10 -2 12 -20 9 -14 -3 -26 -9 -26
-14 0 -5 -8 -9 -17 -9 -26 0 1 -23 29 -25 12 -1 24 -8 26 -16 2 -8 0 -10 -5
-4 -4 6 -19 11 -33 11 -47 3 -50 4 -50 18 0 8 -7 17 -16 20 -14 5 -15 4 -4 -9
11 -13 10 -14 -4 -9 -11 4 -16 1 -16 -14 0 -11 -6 -23 -12 -26 -7 -3 -2 -3 12
0 25 7 25 7 6 -15 -11 -12 -26 -19 -33 -17 -7 3 -13 1 -13 -4 0 -6 6 -10 14
-10 19 0 27 -25 13 -39 -6 -6 -11 -25 -11 -43 -1 -20 -6 -32 -13 -31 -7 2 -10
-3 -7 -11 3 -8 16 -12 32 -9 15 1 21 0 15 -3 -7 -3 -13 -12 -13 -20 0 -8 -4
-14 -10 -14 -5 0 -10 -5 -10 -10 0 -6 8 -10 18 -8 12 2 18 -4 19 -22 2 -16 0
-20 -5 -10 -6 14 -32 26 -32 15 0 -15 24 -53 31 -49 5 3 9 -5 9 -18 0 -13 -4
-18 -8 -12 -10 14 -46 -6 -50 -28 -4 -22 6 -23 30 -1 10 9 18 11 18 6 0 -6 -7
-14 -16 -17 -13 -5 -14 -9 -5 -20 9 -11 9 -15 -1 -19 -8 -4 -7 -6 4 -6 11 -1
15 -6 12 -16 -5 -13 -9 -13 -23 -3 -14 12 -15 11 -2 -5 8 -9 11 -20 8 -23 -3
-4 4 -15 16 -26 l22 -19 -22 11 c-13 6 -23 7 -23 3 0 -4 -6 1 -13 11 -11 15
-15 16 -25 4 -9 -11 -9 -15 1 -16 30 -2 45 -9 68 -31 22 -22 22 -23 2 -12 -30
15 -38 14 -23 -4 7 -9 10 -18 6 -22 -3 -3 -6 -1 -6 7 0 10 -4 10 -17 -1 -15
-12 -16 -12 -10 6 7 20 7 20 -8 0 -10 -12 -12 -21 -5 -23 5 -2 8 -8 5 -13 -4
-5 2 -6 11 -2 15 6 15 4 -1 -21 -14 -21 -20 -24 -27 -14 -6 9 -7 6 -3 -8 11
-40 12 -115 2 -121 -6 -3 -7 -1 -3 6 4 6 0 14 -9 17 -11 5 -13 10 -5 19 12 15
8 51 -7 66 -7 7 -9 3 -6 -15 4 -17 0 -28 -10 -32 -13 -5 -14 -9 -4 -25 10 -16
9 -21 -3 -29 -8 -5 -10 -10 -5 -10 6 0 16 5 23 12 9 9 12 7 12 -11 0 -15 4
-20 13 -15 6 4 9 4 5 -1 -4 -4 -3 -14 2 -20 8 -9 6 -14 -4 -18 -10 -4 -13 -1
-9 9 3 7 0 14 -6 14 -6 0 -11 -4 -11 -10 0 -5 -4 -10 -9 -10 -5 0 -7 8 -4 18
3 13 -2 18 -19 19 -12 1 -18 -1 -13 -5 6 -4 10 -17 11 -28 0 -16 -4 -20 -15
-16 -14 5 -14 3 -2 -11 11 -14 11 -21 -4 -43 -14 -22 -15 -28 -4 -36 10 -7 8
-8 -8 -5 -15 3 -20 1 -16 -9 7 -19 18 -18 39 3 13 13 16 14 12 3 -4 -13 -32
-32 -63 -43 -6 -2 -4 -12 5 -23 14 -18 14 -18 -3 -5 -22 18 -55 22 -64 8 -3
-6 -2 -8 3 -5 10 7 36 -17 27 -25 -3 -3 -12 -3 -21 0 -10 4 -13 2 -8 -5 5 -8
0 -12 -12 -12 -11 0 -23 -7 -26 -16 -4 -10 -14 -14 -26 -11 -11 3 -20 1 -20
-4 0 -5 6 -9 14 -9 15 0 30 -29 20 -39 -3 -3 -11 2 -18 11 -7 9 -24 20 -39 23
-22 6 -26 4 -21 -9 4 -10 1 -16 -7 -16 -7 0 -10 -2 -7 -5 3 -3 17 -1 31 4 24
10 27 8 25 -14 -1 -13 -6 -21 -10 -19 -5 3 -6 10 -3 15 9 14 -15 11 -29 -4 -8
-7 -11 -30 -9 -54 3 -40 -9 -64 -22 -44 -3 6 -15 7 -28 2 -24 -9 -53 11 -42
29 4 6 -1 17 -9 25 -8 9 -13 21 -11 28 3 7 -6 20 -19 29 -22 16 -25 16 -41 -2
-16 -18 -16 -19 3 -17 11 0 18 5 16 9 -3 4 0 8 6 8 6 0 15 -12 20 -26 9 -22 6
-30 -16 -52 -18 -19 -34 -26 -54 -24 -15 2 -31 -2 -35 -8 -4 -6 -15 -8 -26 -5
-11 4 -19 2 -19 -4 0 -6 9 -11 20 -11 24 0 26 -13 5 -34 -9 -9 -11 -17 -5 -21
15 -9 12 -25 -5 -25 -20 0 -19 -10 3 -27 15 -12 14 -12 -10 -2 -15 6 -24 17
-22 24 3 7 1 16 -4 19 -6 3 -13 -1 -16 -9 -3 -9 7 -27 26 -45 33 -32 31 -38
-5 -18 -31 17 -56 17 -50 1 3 -7 -2 -13 -11 -13 -9 0 -16 5 -16 10 0 15 -27
12 -33 -4 -6 -15 36 -31 53 -21 6 4 10 1 10 -4 0 -6 -8 -11 -17 -11 -15 0 -16
-2 -3 -10 9 -6 10 -10 3 -10 -6 0 -15 4 -18 10 -4 6 -19 4 -42 -5 -45 -19 -48
-19 -32 3 13 15 12 16 -3 4 -9 -8 -14 -20 -11 -28 3 -8 0 -14 -6 -14 -6 0 -11
5 -11 10 0 6 -9 10 -19 10 -11 0 -21 6 -24 13 -3 8 -7 6 -12 -7 -5 -10 -3 -21
3 -25 7 -4 8 -12 2 -21 -11 -18 -21 -10 -23 19 -1 24 -16 27 -37 9 -12 -11
-12 -10 -1 5 16 21 -1 23 -19 2 -7 -8 -21 -15 -31 -15 -11 0 -19 -6 -19 -12 0
-9 -4 -8 -10 2 -8 12 -11 13 -19 1 -6 -9 -11 -10 -15 -2 -4 6 -3 11 2 11 5 0
9 7 9 15 0 17 -13 20 -22 5 -11 -18 -26 -11 -16 8 5 9 14 30 20 46 11 27 12
28 31 11 22 -20 62 -13 42 7 -7 7 -12 20 -12 30 0 10 -7 18 -15 18 -8 0 -15 5
-15 10 0 18 -16 10 -17 -9 -1 -10 -13 -30 -27 -44 -14 -15 -26 -31 -26 -37 0
-7 -8 -9 -19 -5 -11 3 -23 0 -27 -6 -4 -8 -3 -9 4 -5 7 4 12 3 12 -2 0 -5 -9
-12 -21 -15 -12 -3 -18 -10 -15 -16 3 -5 0 -16 -8 -24 -8 -8 -12 -17 -9 -21 4
-3 0 -6 -8 -7 -8 0 -21 -2 -30 -4 -14 -2 -13 3 5 35 13 25 23 34 28 27 5 -7 8
-3 8 12 0 25 25 76 78 159 18 29 67 118 108 198 41 79 93 175 115 212 23 37
51 84 62 105 11 20 24 37 29 37 4 0 8 6 8 13 0 7 9 23 20 35 11 12 25 32 30
44 6 13 24 43 40 68 16 25 66 108 111 185 195 331 244 411 264 427 12 9 43 53
69 98 26 44 53 86 59 93 12 12 28 39 51 82 31 57 90 145 97 145 5 0 9 7 9 15
0 8 5 15 10 15 6 0 10 8 10 18 0 9 14 33 30 52 16 19 30 39 30 43 0 5 7 15 15
23 13 14 15 13 15 -8 0 -18 2 -20 10 -8 13 21 13 -5 0 -30 -9 -16 -7 -18 10
-15 11 2 18 0 15 -6 -4 -5 -13 -9 -21 -9 -8 0 -14 -10 -14 -25 0 -19 -4 -23
-17 -18 -16 5 -16 4 0 -9 10 -7 18 -18 17 -23 -2 -6 -2 -17 -1 -25 1 -12 3
-12 10 -2 6 10 10 8 15 -11 5 -20 11 -23 31 -19 19 3 25 0 25 -14 0 -14 2 -16
9 -6 7 11 9 11 14 -2 4 -9 12 -16 19 -16 8 0 9 3 3 8 -5 4 -17 16 -25 26 -14
18 -13 18 10 12 19 -6 21 -5 10 3 -8 6 -25 8 -38 4 -21 -5 -22 -3 -12 23 6 16
16 34 21 41 6 7 7 18 3 24 -4 7 -3 10 2 6 5 -3 14 6 21 19 12 25 2 41 -19 28
-6 -4 -8 -3 -4 4 3 6 2 13 -4 17 -5 3 -10 12 -10 18 0 7 7 3 15 -7 8 -11 18
-17 21 -13 4 3 19 -2 33 -13 30 -20 59 -14 35 8 -11 10 -14 10 -14 0 -1 -7 -6
-2 -13 12 -7 14 -21 27 -32 28 -30 5 -39 19 -16 25 12 3 24 1 27 -4 3 -5 10
-9 17 -9 6 0 2 7 -10 15 -22 16 -21 51 1 38 6 -3 6 -1 -1 8 -17 17 -16 29 0
29 8 0 14 6 14 13 0 6 3 22 7 34 6 18 4 21 -14 16 -27 -7 -36 -23 -13 -24 16
0 16 -1 -2 -9 -28 -12 -45 -12 -45 1 0 5 5 7 10 4 6 -3 10 1 10 9 0 18 29 48
40 41 5 -3 11 -1 15 4 3 6 -4 8 -16 6 -17 -4 -20 -2 -11 7 7 7 12 20 12 29 0
9 7 20 16 23 8 3 12 11 8 17 -4 7 -3 9 4 5 6 -3 13 -2 17 4 3 5 1 10 -4 10 -7
0 -7 7 1 20 14 22 28 26 28 10z m-860 -32 c-16 -15 -30 -19 -51 -14 -16 3 -29
1 -29 -4 0 -6 -16 -10 -35 -10 -19 0 -35 -4 -35 -10 0 -5 -18 -10 -40 -10 -36
0 -40 2 -40 25 0 21 4 25 23 21 58 -11 71 -13 60 -9 -32 11 -8 22 40 17 32 -2
61 1 77 9 37 20 56 9 30 -15z m-1428 -175 c30 -75 37 -103 26 -109 -13 -8 -25
11 -37 56 -26 100 -20 129 11 53z m668 3 c0 -3 -4 -8 -10 -11 -5 -3 -10 -1
-10 4 0 6 5 11 10 11 6 0 10 -2 10 -4z m1515 -16 c-3 -5 -12 -10 -20 -10 -8 0
-17 5 -20 10 -4 6 5 10 20 10 15 0 24 -4 20 -10z m-27 -28 c2 -7 -2 -10 -12
-6 -9 3 -16 2 -16 -4 0 -5 7 -13 16 -16 8 -3 12 -10 9 -16 -4 -6 -11 -8 -16
-4 -6 3 -19 -2 -29 -11 -18 -16 -18 -16 -13 4 3 12 9 21 14 21 5 0 8 3 7 8 -6
30 30 52 40 24z m-2558 -74 c21 -100 22 -100 8 -96 -13 5 -26 46 -35 117 -7
61 12 45 27 -21z m690 38 c0 -9 -9 -14 -20 -13 -25 2 -26 14 -2 20 9 3 18 5
20 6 1 0 2 -5 2 -13z m-60 -16 c0 -5 -5 -10 -11 -10 -5 0 -7 5 -4 10 3 6 8 10
11 10 2 0 4 -4 4 -10z m2510 -28 c0 -5 -7 -9 -15 -9 -8 0 -12 4 -9 9 3 4 9 8
15 8 5 0 9 -4 9 -8z m0 -42 c0 -5 -4 -10 -10 -10 -5 0 -10 5 -10 10 0 6 5 10
10 10 6 0 10 -4 10 -10z m-53 -6 c-3 -3 -12 -4 -19 -1 -8 3 -5 6 6 6 11 1 17
-2 13 -5z m-544 -60 c-8 -20 -29 -23 -40 -6 -8 14 -5 17 18 18 18 1 26 -3 22
-12z m537 2 c0 -2 -7 -6 -15 -10 -8 -3 -15 -1 -15 4 0 6 7 10 15 10 8 0 15 -2
15 -4z m-86 -31 c-4 -8 -10 -15 -15 -15 -4 0 -6 7 -3 15 4 8 10 15 15 15 4 0
6 -7 3 -15z m-474 -45 c0 -5 -5 -10 -11 -10 -5 0 -7 5 -4 10 3 6 8 10 11 10 2
0 4 -4 4 -10z m390 -20 c0 -5 -2 -10 -4 -10 -3 0 -8 5 -11 10 -3 6 -1 10 4 10
6 0 11 -4 11 -10z m-185 -80 c3 -5 1 -10 -4 -10 -6 0 -11 5 -11 10 0 6 2 10 4
10 3 0 8 -4 11 -10z m47 -7 c-19 -4 -21 -7 -11 -19 6 -8 9 -17 6 -21 -4 -3 -9
1 -13 10 -5 15 -8 15 -30 0 -19 -12 -23 -13 -19 -2 7 18 43 37 70 36 16 0 15
-1 -3 -4z m-82 -128 c0 -8 -4 -15 -10 -15 -5 0 -10 -7 -10 -15 0 -8 -4 -15
-10 -15 -15 0 -12 16 5 30 8 7 12 16 9 21 -3 5 0 9 5 9 6 0 11 -7 11 -15z
m-2568 -70 c3 -13 1 -22 -3 -19 -9 5 -13 44 -5 44 2 0 6 -11 8 -25z m2508 2
c0 5 10 9 22 8 14 -1 22 -9 24 -26 3 -22 3 -22 -10 -6 -15 19 -36 23 -36 6 0
-8 -5 -7 -15 1 -13 11 -14 10 -9 -4 3 -9 2 -16 -4 -16 -15 0 -20 23 -8 36 8 8
15 9 24 2 7 -6 12 -7 12 -1z m35 -68 c11 -16 1 -19 -13 -3 -7 8 -8 14 -3 14 5
0 13 -5 16 -11z m-2499 -103 c-5 -15 -26 40 -25 67 0 15 5 10 15 -17 8 -22 13
-45 10 -50z m2324 19 c7 -8 9 -15 4 -15 -5 0 -4 -4 1 -8 6 -4 16 -15 24 -24
12 -16 11 -18 -3 -18 -10 0 -14 5 -11 10 3 6 -1 10 -9 10 -9 0 -16 9 -16 20 0
11 -4 20 -10 20 -5 0 -10 5 -10 10 0 15 16 12 30 -5z m37 0 c8 -22 -6 -33 -17
-15 -13 20 -12 30 0 30 6 0 13 -7 17 -15z m-72 -33 c3 -11 -1 -32 -10 -48 -19
-37 -19 -45 3 -38 13 5 14 4 3 -4 -7 -5 -10 -15 -7 -21 4 -6 3 -11 -2 -11 -24
0 -23 76 1 91 14 10 0 42 -14 33 -8 -4 -9 -3 -5 4 11 18 24 14 31 -6z m30 -53
c-4 -5 -1 -9 4 -9 6 0 11 5 11 10 0 6 7 10 16 10 14 0 15 -2 3 -17 -10 -11
-10 -14 -1 -9 7 4 12 2 12 -4 0 -6 -8 -10 -17 -8 -10 1 -23 -1 -29 -5 -7 -4
-14 1 -17 13 -3 11 -1 20 5 20 5 0 6 5 2 12 -4 7 -3 8 5 4 6 -4 9 -12 6 -17z
m-2280 -62 c4 -17 9 -41 12 -52 3 -11 2 -16 -3 -12 -11 11 -34 108 -23 102 4
-3 10 -20 14 -38z m2323 -4 c1 -19 -3 -23 -28 -23 -34 0 -36 3 -14 28 21 25
40 23 42 -5z m-23 -62 c17 -12 21 -21 14 -28 -12 -12 -51 -5 -44 8 3 4 13 6
23 3 11 -4 8 2 -8 15 -31 26 -17 28 15 2z m-2266 -77 c17 -66 7 -65 -11 1 -8
30 -12 52 -8 50 4 -3 13 -26 19 -51z m2217 -181 c-7 -7 -26 7 -26 19 0 6 6 6
15 -2 9 -7 13 -15 11 -17z m-20 -155 c4 -7 3 -8 -4 -4 -7 4 -12 1 -13 -6 0
-10 -2 -10 -6 0 -9 23 -23 1 -16 -26 6 -24 5 -26 -10 -13 -21 17 -21 25 -1 45
18 19 40 21 50 4z m-96 -62 c0 -3 -4 -8 -10 -11 -5 -3 -10 -1 -10 4 0 6 5 11
10 11 6 0 10 -2 10 -4z m-15 -126 c3 -5 1 -10 -4 -10 -6 0 -11 5 -11 10 0 6 2
10 4 10 3 0 8 -4 11 -10z m-108 -212 c-3 -8 -6 -5 -6 6 -1 11 2 17 5 13 3 -3
4 -12 1 -19z m-41 -14 c-9 -6 -13 -14 -9 -17 3 -4 -1 -7 -10 -7 -9 0 -19 5
-22 10 -3 6 1 10 10 10 9 0 14 4 11 8 -2 4 4 8 15 8 18 0 18 -2 5 -12z m-71
-104 c-3 -5 -15 -10 -26 -10 -11 0 -17 5 -14 10 3 6 15 10 26 10 11 0 17 -4
14 -10z m-190 -50 c3 -5 -1 -10 -9 -10 -9 0 -16 5 -16 10 0 6 4 10 9 10 6 0
13 -4 16 -10z m-65 -42 c0 -5 -9 -8 -20 -8 -18 0 -19 3 -8 20 9 14 14 16 20 7
4 -7 8 -15 8 -19z m38 14 c4 -14 0 -15 -22 -6 -9 3 -16 10 -16 14 0 12 33 5
38 -8z m6 -31 c4 -5 -3 -7 -14 -4 -23 6 -26 13 -6 13 8 0 17 -4 20 -9z m60
-16 c-4 -8 -12 -11 -22 -7 -16 6 -15 7 1 10 9 2 14 8 11 14 -4 7 -2 8 4 4 6
-4 9 -13 6 -21z m-83 5 c6 0 7 -5 4 -10 -4 -6 -13 -7 -24 -1 -10 6 -23 6 -32
0 -11 -7 -11 -9 0 -9 11 0 11 -3 0 -16 -12 -14 -14 -14 -20 3 -7 20 26 46 49
38 8 -3 18 -5 23 -5z m-13 -71 c-18 -10 -65 1 -48 11 6 4 23 5 37 2 19 -4 22
-7 11 -13z m-485 -9 c3 -11 1 -20 -4 -20 -5 0 -9 2 -9 4 0 2 -3 11 -6 20 -3 9
-2 16 4 16 5 0 12 -9 15 -20z m365 -29 c11 -7 10 -10 -3 -15 -20 -7 -38 1 -30
15 7 11 16 11 33 0z m52 -21 c0 -5 -2 -10 -4 -10 -3 0 -8 5 -11 10 -3 6 -1 10
4 10 6 0 11 -4 11 -10z m-150 -45 c0 -9 -6 -12 -15 -9 -8 4 -12 10 -9 15 8 14
24 10 24 -6z m45 -5 c-3 -5 -10 -10 -16 -10 -5 0 -9 5 -9 10 0 6 7 10 16 10 8
0 12 -4 9 -10z m-135 -10 c0 -5 -5 -10 -11 -10 -5 0 -7 5 -4 10 3 6 8 10 11
10 2 0 4 -4 4 -10z m-85 -22 c-11 -7 -21 -6 -28 2 -9 8 -8 10 6 5 10 -4 17 -2
17 5 0 6 5 8 11 4 8 -5 6 -10 -6 -16z m165 6 c0 -2 -7 -4 -15 -4 -8 0 -15 4
-15 10 0 5 7 7 15 4 8 -4 15 -8 15 -10z m-310 -16 c0 -6 -6 -5 -15 2 -8 7 -15
14 -15 16 0 2 7 1 15 -2 8 -4 15 -11 15 -16z m197 -30 c-3 -8 -6 -5 -6 6 -1
11 2 17 5 13 3 -3 4 -12 1 -19z"/>
<path d="M11316 5644 c-9 -24 -2 -26 12 -4 7 11 8 20 3 20 -5 0 -12 -7 -15
-16z"/>
<path d="M11277 5618 c-10 -11 -17 -22 -14 -24 6 -6 37 25 37 37 0 12 -2 11
-23 -13z"/>
<path d="M11245 5571 c-3 -6 3 -9 14 -8 11 0 17 5 15 9 -7 11 -22 10 -29 -1z"/>
<path d="M11535 5490 c-3 -6 1 -7 9 -4 18 7 21 14 7 14 -6 0 -13 -4 -16 -10z"/>
<path d="M11576 5325 c-3 -8 -1 -15 4 -15 6 0 10 7 10 15 0 8 -2 15 -4 15 -2
0 -6 -7 -10 -15z"/>
<path d="M11478 5302 c-11 -13 -11 -14 2 -7 8 5 23 8 33 7 23 -4 22 4 -3 11
-11 3 -25 -2 -32 -11z"/>
<path d="M11530 5241 c0 -10 19 -25 25 -20 1 2 -3 10 -11 17 -8 7 -14 8 -14 3z"/>
<path d="M11202 5231 c4 -13 18 -16 19 -4 0 4 -5 9 -11 12 -7 2 -11 -2 -8 -8z"/>
<path d="M11513 5224 c9 -11 14 -24 10 -28 -4 -4 1 -4 10 0 10 3 17 7 15 8 -2
1 -14 10 -28 21 l-25 20 18 -21z"/>
<path d="M11490 5205 c0 -11 -7 -14 -25 -11 -15 3 -23 1 -20 -5 4 -5 19 -8 34
-7 22 2 27 6 23 20 -5 22 -12 23 -12 3z"/>
<path d="M11228 5176 c3 -12 7 -15 10 -8 2 7 7 10 11 8 4 -3 8 0 8 7 0 7 -8
13 -17 13 -12 0 -15 -6 -12 -20z"/>
<path d="M11175 5180 c3 -5 8 -10 11 -10 2 0 4 5 4 10 0 6 -5 10 -11 10 -5 0
-7 -4 -4 -10z"/>
<path d="M11025 5165 c-25 -12 -26 -14 -9 -15 12 0 27 7 34 15 15 18 14 18
-25 0z"/>
<path d="M11045 5140 c-3 -5 -3 -10 1 -10 4 0 -1 -9 -11 -20 -10 -11 -14 -20
-9 -20 5 0 1 -5 -9 -11 -9 -6 -15 -14 -12 -18 2 -5 -10 -7 -28 -5 -21 3 -27 1
-18 -5 11 -7 10 -11 -5 -19 -32 -18 -4 -36 31 -20 25 11 29 10 47 -12 10 -13
17 -29 14 -36 -3 -7 0 -16 6 -20 6 -4 8 -3 5 3 -4 6 0 13 7 16 8 3 17 1 20 -6
3 -7 4 -3 3 8 -2 11 -9 19 -17 17 -11 -3 -11 0 0 13 7 8 10 19 6 22 -4 4 -11
1 -16 -7 -7 -10 -10 -11 -10 -2 0 6 -7 12 -15 12 -8 0 -15 4 -15 9 0 18 12 41
22 41 5 0 6 -6 3 -12 -4 -7 3 -2 14 12 11 14 21 30 21 35 0 14 20 -17 20 -32
0 -7 -6 -13 -14 -13 -7 0 -20 -8 -27 -17 -12 -15 -12 -16 5 -10 12 5 23 3 29
-5 6 -9 7 -7 3 6 -4 13 -2 17 7 13 16 -6 18 34 2 45 -6 5 -5 8 3 8 10 0 10 5
2 21 -9 16 -18 19 -37 14 -16 -4 -22 -2 -18 5 3 5 4 10 1 10 -3 0 -8 -4 -11
-10z"/>
<path d="M11294 5141 c4 -6 2 -11 -3 -11 -6 0 -3 -8 7 -18 9 -10 23 -17 30
-14 7 2 10 7 8 10 -3 3 0 12 7 20 9 12 9 14 0 8 -7 -4 -22 -2 -34 5 -15 8 -19
8 -15 0z"/>
<path d="M10990 5130 c0 -6 7 -10 15 -10 8 0 15 2 15 4 0 2 -7 6 -15 10 -8 3
-15 1 -15 -4z"/>
<path d="M10980 5097 l-25 -10 23 -5 c26 -4 36 1 31 16 -3 6 -14 5 -29 -1z"/>
<path d="M11136 5102 c-6 -10 -2 -39 7 -48 4 -4 7 7 7 24 0 32 -4 39 -14 24z"/>
<path d="M11220 5070 c0 -6 7 -10 15 -10 8 0 15 2 15 4 0 2 -7 6 -15 10 -8 3
-15 1 -15 -4z"/>
<path d="M11265 5050 c3 -5 11 -10 16 -10 6 0 7 5 4 10 -3 6 -11 10 -16 10 -6
0 -7 -4 -4 -10z"/>
<path d="M11160 5021 c0 -10 19 -25 25 -20 1 2 -3 10 -11 17 -8 7 -14 8 -14 3z"/>
<path d="M11210 5010 c11 -7 11 -10 2 -10 -7 0 -12 -8 -10 -17 2 -11 -3 -17
-14 -17 -51 3 -51 3 -38 19 10 12 10 15 -3 15 -23 0 -29 -16 -11 -31 28 -23
126 -21 121 4 -2 13 -41 47 -54 47 -4 0 -1 -5 7 -10z"/>
<path d="M10910 4990 c0 -5 5 -10 11 -10 5 0 7 5 4 10 -3 6 -8 10 -11 10 -2 0
-4 -4 -4 -10z"/>
<path d="M10970 4990 c0 -5 -6 -8 -12 -6 -7 1 -10 1 -5 -1 4 -3 5 -8 3 -12 -3
-4 1 -8 9 -8 8 0 12 4 9 9 -6 10 10 11 19 1 4 -3 2 -12 -5 -20 -14 -18 -7 -24
21 -16 17 4 19 8 9 14 -10 7 -10 9 0 9 7 0 4 8 -8 20 -21 21 -40 26 -40 10z"/>
<path d="M10906 4933 c7 -31 12 -38 18 -32 7 7 -6 59 -15 59 -5 0 -6 -12 -3
-27z"/>
<path d="M10961 4934 c0 -11 3 -14 6 -6 3 7 2 16 -1 19 -3 4 -6 -2 -5 -13z"/>
<path d="M10870 4870 c0 -5 5 -10 11 -10 5 0 7 5 4 10 -3 6 -8 10 -11 10 -2 0
-4 -4 -4 -10z"/>
<path d="M11060 4860 c-9 -6 -10 -10 -3 -10 6 0 15 5 18 10 8 12 4 12 -15 0z"/>
<path d="M10900 4841 c0 -6 4 -13 10 -16 6 -3 7 1 4 9 -7 18 -14 21 -14 7z"/>
<path d="M10991 4834 c0 -11 3 -14 6 -6 3 7 2 16 -1 19 -3 4 -6 -2 -5 -13z"/>
<path d="M10855 4829 c-10 -15 3 -25 16 -12 7 7 7 13 1 17 -6 3 -14 1 -17 -5z"/>
<path d="M11053 4818 c4 -24 22 -35 32 -19 3 6 2 11 -4 11 -6 0 -8 7 -5 15 4
9 0 15 -10 15 -11 0 -15 -7 -13 -22z"/>
<path d="M10831 4804 c0 -11 3 -14 6 -6 3 7 2 16 -1 19 -3 4 -6 -2 -5 -13z"/>
<path d="M11030 4805 c0 -8 4 -15 8 -15 5 0 9 7 9 15 0 8 -4 15 -9 15 -4 0 -8
-7 -8 -15z"/>
<path d="M10964 4785 c-8 -34 2 -43 24 -21 16 16 16 17 0 10 -21 -7 -24 6 -6
24 9 9 9 12 0 12 -6 0 -14 -11 -18 -25z"/>
<path d="M11000 4804 c1 -15 28 -46 33 -37 2 4 -4 17 -14 27 -11 11 -19 15
-19 10z"/>
<path d="M10885 4763 c11 -3 24 -10 28 -17 6 -7 7 -6 4 4 -2 8 -14 16 -28 17
-19 1 -20 1 -4 -4z"/>
<path d="M10973 4657 c11 -9 15 -22 11 -33 -5 -16 -4 -16 5 -4 15 22 14 28
-11 40 -21 10 -21 10 -5 -3z"/>
<path d="M10983 4593 c-15 -5 -17 -23 -4 -23 5 0 11 7 15 15 3 8 4 15 3 14 -1
0 -8 -3 -14 -6z"/>
<path d="M10970 4527 c9 -7 14 -24 12 -39 -3 -22 0 -27 12 -22 12 5 13 10 5
25 -8 15 -6 19 8 19 15 0 15 2 -3 15 -10 8 -26 14 -34 14 -13 0 -13 -1 0 -12z"/>
<path d="M10964 4413 c-2 -18 3 -23 22 -23 13 0 24 4 24 9 0 5 -10 7 -22 4
-22 -5 -22 -5 -4 9 19 15 19 15 0 20 -14 4 -19 -1 -20 -19z"/>
<path d="M10931 4364 c0 -11 3 -14 6 -6 3 7 2 16 -1 19 -3 4 -6 -2 -5 -13z"/>
<path d="M10980 4315 c0 -8 4 -15 9 -15 5 0 11 7 15 15 3 9 0 15 -9 15 -8 0
-15 -7 -15 -15z"/>
<path d="M10977 4277 c-3 -8 1 -14 8 -14 7 0 11 6 8 14 -3 7 -6 13 -8 13 -2 0
-5 -6 -8 -13z"/>
<path d="M10970 4200 c0 -6 7 -10 15 -10 8 0 15 2 15 4 0 2 -7 6 -15 10 -8 3
-15 1 -15 -4z"/>
<path d="M10940 4140 c0 -5 5 -10 11 -10 5 0 7 5 4 10 -3 6 -8 10 -11 10 -2 0
-4 -4 -4 -10z"/>
<path d="M10897 3989 c7 -7 15 -10 18 -7 3 3 -2 9 -12 12 -14 6 -15 5 -6 -5z"/>
<path d="M10831 3888 c5 -7 15 -13 22 -13 7 -1 11 -6 10 -13 -2 -7 2 -12 8
-12 6 0 8 7 5 16 -3 9 -6 20 -6 26 0 7 -4 7 -13 -1 -9 -7 -18 -7 -25 -1 -9 7
-9 7 -1 -2z"/>
<path d="M10817 3822 c2 -15 4 -35 4 -44 0 -20 7 -22 26 -10 9 6 8 12 -7 25
-11 9 -17 23 -14 31 3 8 1 17 -4 20 -5 3 -7 -7 -5 -22z"/>
<path d="M10843 3835 c0 -8 4 -12 9 -9 5 3 6 10 3 15 -9 13 -12 11 -12 -6z"/>
<path d="M10765 3770 c3 -5 8 -10 11 -10 2 0 4 5 4 10 0 6 -5 10 -11 10 -5 0
-7 -4 -4 -10z"/>
<path d="M10676 3725 c-3 -8 -1 -15 4 -15 6 0 10 7 10 15 0 8 -2 15 -4 15 -2
0 -6 -7 -10 -15z"/>
<path d="M10736 3722 c-3 -4 4 -9 15 -9 23 -2 25 3 4 10 -8 4 -16 3 -19 -1z"/>
<path d="M10650 3691 c0 -5 7 -11 15 -15 8 -3 15 -1 15 3 0 5 -7 11 -15 15 -8
3 -15 1 -15 -3z"/>
<path d="M10540 3634 c0 -15 38 -44 58 -44 12 0 12 3 2 14 -6 8 -19 12 -27 9
-12 -5 -15 -2 -11 14 3 12 0 20 -8 20 -8 0 -14 -6 -14 -13z"/>
<path d="M10600 3632 c0 -12 19 -26 26 -19 2 2 -2 10 -11 17 -9 8 -15 8 -15 2z"/>
<path d="M10355 3610 c3 -5 8 -10 11 -10 2 0 4 5 4 10 0 6 -5 10 -11 10 -5 0
-7 -4 -4 -10z"/>
<path d="M10615 3580 c-3 -5 -13 -6 -22 -3 -10 4 -14 2 -10 -4 4 -6 2 -13 -5
-15 -8 -3 -6 -7 5 -11 9 -3 17 -2 17 3 0 5 7 7 15 4 10 -4 15 0 15 15 0 23 -5
27 -15 11z"/>
<path d="M10490 3565 c27 -14 36 -13 25 4 -3 6 -16 11 -28 11 -21 -1 -21 -1 3
-15z"/>
<path d="M10410 3535 c0 -7 30 -13 34 -7 3 4 -4 9 -15 9 -10 1 -19 0 -19 -2z"/>
<path d="M10565 3530 c-3 -5 -1 -11 4 -14 5 -4 11 -2 13 4 2 6 14 4 31 -5 23
-12 27 -12 27 1 0 8 -3 15 -7 15 -44 7 -63 6 -68 -1z"/>
<path d="M10260 3500 c0 -5 5 -10 11 -10 5 0 7 5 4 10 -3 6 -8 10 -11 10 -2 0
-4 -4 -4 -10z"/>
<path d="M10347 3469 c7 -7 15 -10 18 -7 3 3 -2 9 -12 12 -14 6 -15 5 -6 -5z"/>
<path d="M10350 3440 c0 -5 5 -10 10 -10 6 0 10 5 10 10 0 6 -4 10 -10 10 -5
0 -10 -4 -10 -10z"/>
<path d="M9995 3420 c3 -5 8 -10 11 -10 2 0 4 5 4 10 0 6 -5 10 -11 10 -5 0
-7 -4 -4 -10z"/>
<path d="M10194 3379 c-3 -6 -1 -16 4 -21 8 -8 11 -5 9 11 -1 24 -3 25 -13 10z"/>
<path d="M10150 3356 c0 -2 7 -9 15 -16 9 -7 15 -8 15 -2 0 5 -7 12 -15 16 -8
3 -15 4 -15 2z"/>
<path d="M10067 3337 c-3 -7 4 -24 14 -38 10 -13 19 -19 19 -12 0 6 -5 15 -10
18 -8 5 -8 11 -1 19 6 7 8 16 4 19 -10 11 -20 8 -26 -6z"/>
<path d="M10030 3310 c0 -5 -7 -10 -15 -10 -8 0 -15 -4 -15 -9 0 -15 15 -20
30 -11 16 10 23 40 9 40 -5 0 -9 -4 -9 -10z"/>
<path d="M9950 3301 c0 -6 5 -13 10 -16 6 -4 8 -10 5 -15 -3 -4 2 -7 10 -6 9
1 15 5 15 9 0 4 0 14 0 22 0 8 -9 15 -20 15 -11 0 -20 -4 -20 -9z"/>
<path d="M7900 13516 c0 -5 16 -54 36 -110 93 -263 289 -607 475 -836 127
-156 338 -383 439 -473 52 -46 132 -120 177 -164 46 -44 95 -86 110 -94 16 -8
39 -24 53 -37 14 -12 39 -27 57 -33 17 -5 34 -16 37 -24 3 -8 13 -15 21 -15 9
0 23 -6 30 -12 31 -28 42 -35 85 -52 25 -10 54 -26 66 -37 12 -11 39 -23 60
-26 21 -3 48 -12 59 -19 25 -18 85 -18 85 -1 0 49 -115 184 -241 284 -51 40
-199 174 -224 201 -11 13 -39 43 -61 67 -29 31 -38 47 -31 54 8 8 7 11 -2 11
-10 0 -11 3 -2 14 13 15 3 25 -181 175 -40 32 -90 75 -112 95 -50 48 -60 38
-12 -11 42 -44 50 -74 10 -40 -15 12 -31 27 -36 32 -35 41 -47 59 -42 67 3 4
2 8 -3 7 -4 -1 -13 -1 -20 0 -16 1 -272 286 -297 329 -5 9 -18 26 -29 37 -17
18 -129 154 -149 180 -43 57 -150 192 -228 285 -118 142 -130 156 -130 146z"/>
<path d="M11627 10491 c3 -11 11 -22 19 -25 17 -7 17 4 0 27 -17 22 -25 22
-19 -2z"/>
<path d="M11660 10445 c0 -5 5 -17 10 -25 5 -8 10 -10 10 -5 0 6 -5 17 -10 25
-5 8 -10 11 -10 5z"/>
</g>
</svg>
